<svg width="182" height="127" viewBox="0 0 182 127" fill="none" xmlns="http://www.w3.org/2000/svg">
<path d="M180 3.95507L111.443 60.8215L149.672 97.818C150.177 98.306 150.189 99.1099 149.701 99.6137C149.212 100.117 148.408 100.13 147.903 99.6422L109.475 62.4535L96.9764 72.8213C94.1542 75.1622 90.0637 75.1647 87.2386 72.8273L72.1093 60.3094L34.5517 99.5788L32.7134 97.8243L70.1463 58.6852L4 3.95605L5.62176 2L72.2866 57.1582C72.5579 57.1858 72.8224 57.3005 73.0348 57.5033C73.2006 57.6616 73.3143 57.8539 73.3752 58.0589L88.8604 70.8712C90.7437 72.4295 93.4707 72.4278 95.3522 70.8672L178.376 2.00103L180 3.95507Z" fill="#BEA000"/>
<rect x="1" y="1" width="180" height="125" rx="9" stroke="black" stroke-width="2"/>
</svg>
