<svg width="151" height="122" viewBox="0 0 151 122" fill="none" xmlns="http://www.w3.org/2000/svg">
<circle cx="75.5" cy="28.5" r="8.5" stroke="black" stroke-width="2"/>
<path fill-rule="evenodd" clip-rule="evenodd" d="M39.0001 57H38.4261L38.1366 57.4957L1.63657 119.996L0.758057 121.5H2.5001H148.399H150.091L149.275 120.018L114.876 57.5178L114.591 57H114H87.5001V59H113.409L115.619 63.0161L83.7363 77.0822L82.4807 70.8039L80.5195 71.1961L82.0195 78.6961L82.2638 79.9178L83.4037 79.4149L116.588 64.775L122.42 75.3722L86.6092 90.5796L85.8819 90.8884L86.0142 91.6674C87.3827 99.7266 90.1096 115.631 90.8728 119.5H44.8186L61.7586 59H64.0001V57H39.0001ZM59.6816 59H39.5741L4.24213 119.5H42.7416L59.6816 59ZM88.1183 92.1116L123.389 77.1334L146.707 119.5H92.9123C92.3591 116.886 89.6038 100.849 88.1183 92.1116Z" fill="black"/>
<path d="M98.8872 35.7255L76 81.5L52.6126 36.157C51.8815 34.7396 51.484 33.1358 51.5508 31.5423C53.2514 -9.04091 97.1213 -7.30537 99.8802 30.9902C99.9976 32.6198 99.6179 34.2641 98.8872 35.7255Z" stroke="#BEA000" stroke-width="2"/>
</svg>
